<?xml version="1.0" encoding="UTF-8" standalone="no"?>
<!-- Created with Inkscape (http://www.inkscape.org/) -->

<svg
   width="210mm"
   height="297mm"
   viewBox="0 0 210 297"
   version="1.1"
   id="svg1"
   inkscape:version="1.4 (86a8ad7, 2024-10-11)"
   sodipodi:docname="cauldron.svg"
   xmlns:inkscape="http://www.inkscape.org/namespaces/inkscape"
   xmlns:sodipodi="http://sodipodi.sourceforge.net/DTD/sodipodi-0.dtd"
   xmlns="http://www.w3.org/2000/svg"
   xmlns:svg="http://www.w3.org/2000/svg">
  <sodipodi:namedview
     id="namedview1"
     pagecolor="#ffffff"
     bordercolor="#000000"
     borderopacity="0.25"
     inkscape:showpageshadow="2"
     inkscape:pageopacity="0.0"
     inkscape:pagecheckerboard="0"
     inkscape:deskcolor="#d1d1d1"
     inkscape:document-units="mm"
     inkscape:zoom="0.68862935"
     inkscape:cx="396.43968"
     inkscape:cy="532.21664"
     inkscape:window-width="1920"
     inkscape:window-height="991"
     inkscape:window-x="4791"
     inkscape:window-y="-9"
     inkscape:window-maximized="1"
     inkscape:current-layer="svg1" />
  <defs
     id="defs1" />
  <path
     id="path12"
     style="fill:#1f112c;fill-opacity:1;stroke-width:0.264583"
     d="M 107.68955 206.1931 A 63.011642 14.074386 0 0 0 44.677893 220.26769 A 63.011642 14.074386 0 0 0 54.900525 227.9189 L 61.090328 245.8992 C 61.090328 245.8992 90.67547 290.46808 107.58103 289.69963 C 107.69387 289.6945 107.81073 289.67755 107.9252 289.66759 L 107.31645 290.39003 C 152.26989 289.6216 176.86007 268.87362 169.17572 254.27337 C 161.49137 239.67311 159.18611 229.68341 164.56515 227.76233 C 168.85831 226.22905 171.91381 224.20108 170.63403 220.51677 A 63.011642 14.074386 0 0 0 170.70121 220.26769 A 63.011642 14.074386 0 0 0 107.68955 206.1931 z " />
  <path
     style="fill:#552b09;fill-opacity:1;stroke-width:0.282567"
     d="m 2.8867103,89.334457 c 0,-27.082026 4.9240065,-68.525751 20.9270257,-77.963432 C 39.816759,1.9333462 165.37893,5.2160174 185.07495,9.3193569 c 19.69603,4.1033381 22.9787,63.6017531 22.9787,80.8357751 0,17.234028 -15.18235,61.139748 -84.52878,61.550088 C 54.178445,152.11554 5.3487129,134.06085 2.8867103,89.334457 Z"
     id="path8-1" />
  <path
     style="fill:#00036d;fill-opacity:1;stroke-width:0.264583"
     d="m 9.2212159,88.369986 c 0,-25.358344 4.6106081,-64.164294 19.5950831,-73.001293 14.984476,-8.8369984 132.554981,-5.7632598 150.997411,-1.921086 18.44243,3.842173 21.51617,59.553685 21.51617,75.690813 0,16.13713 -14.21604,57.24838 -79.14877,57.6326 C 57.248382,147.15523 11.52652,130.24967 9.2212159,88.369986 Z"
     id="path8" />
  <path
     style="fill:#6f2515;fill-opacity:1;stroke-width:0.255249"
     d="m 117.18629,174.1582 c 0.34678,7.1314 0.34678,8.71615 13.87122,9.11234 13.52445,0.39618 13.87123,-2.37714 14.56479,-6.73521 0.69356,-4.35807 -8.66952,-5.94283 -15.60513,-5.94283 -6.93561,0 -10.40342,0.79238 -12.83088,3.5657 z"
     id="path14"
     transform="translate(1.5368693,1.152652)" />
  <path
     style="fill:#9f4b39;fill-opacity:1;stroke-width:0.178711"
     d="m 155.8522,186.8632 c -0.23349,5.19204 -0.23349,6.34582 -9.33952,6.63427 -9.10604,0.28844 -9.33953,-1.73068 -9.8065,-4.90359 -0.46698,-3.17291 5.8372,-4.3267 10.50696,-4.3267 4.66976,0 7.00464,0.5769 8.63906,2.59602 z"
     id="path14-1"
     transform="translate(1.5368693,1.152652)" />
  <path
     style="fill:#512e27;fill-opacity:1;stroke-width:0.145781"
     d="m 163.58156,177.95461 c -0.19605,4.11461 -0.19605,5.02897 -7.84206,5.25756 -7.646,0.22859 -7.84206,-1.37154 -8.23416,-3.88602 -0.3921,-2.51449 4.90129,-3.42885 8.82232,-3.42885 3.92103,0 5.88154,0.45718 7.2539,2.05731 z"
     id="path14-1-7"
     transform="translate(1.5368693,1.152652)" />
  <path
     style="fill:#6f2515;fill-opacity:1;stroke-width:0.197248"
     d="m 135.82717,186.61504 c -0.2965,4.98072 -0.2965,6.08754 -11.86033,6.36425 -11.56381,0.2767 -11.86032,-1.66024 -12.45334,-4.70401 -0.59302,-3.04377 7.41271,-4.15059 13.34287,-4.15059 5.93016,0 8.89525,0.55341 10.9708,2.49035 z"
     id="path14-9"
     transform="translate(1.5368693,1.152652)" />
  <path
     style="fill:#9f4b39;fill-opacity:1;stroke-width:0.138102"
     d="m 102.76661,195.48848 c 0.19965,3.62622 0.19965,4.43205 7.98559,4.63351 7.78595,0.20145 7.98559,-1.20875 8.38486,-3.42477 0.39929,-2.21603 -4.99098,-3.02186 -8.98378,-3.02186 -3.99279,0 -5.98919,0.40292 -7.38667,1.81312 z"
     id="path14-1-2"
     transform="translate(1.5368693,1.152652)" />
  <path
     style="fill:#512e27;fill-opacity:1;stroke-width:0.112655"
     d="m 96.157769,189.26653 c 0.16762,2.87373 0.16762,3.51234 6.705211,3.67199 6.53757,0.15965 6.7052,-0.95791 7.04046,-2.71407 0.33526,-1.75618 -4.19075,-2.39478 -7.54336,-2.39478 -3.352611,0 -5.028901,0.3193 -6.202311,1.43686 z"
     id="path14-1-7-7"
     transform="translate(1.5368693,1.152652)" />
  <path
     style="fill:#6f2515;fill-opacity:1;stroke-width:0.282053"
     d="m 75.193006,160.21431 c 0.34678,8.70779 0.34678,10.64285 13.871224,11.12661 13.52444,0.48376 13.87122,-2.90261 14.56478,-8.22402 0.69356,-5.32142 -8.669521,-7.25649 -15.60512,-7.25649 -6.935614,0 -10.403424,0.96754 -12.830884,4.3539 z"
     id="path14-3"
     transform="translate(1.5368693,1.152652)" />
  <path
     style="fill:#9f4b39;fill-opacity:1;stroke-width:0.197477"
     d="m 113.85891,175.72774 c -0.23349,6.33974 -0.23349,7.74855 -9.33952,8.10077 -9.106041,0.3522 -9.339531,-2.11324 -9.806501,-5.98753 -0.46698,-3.87427 5.837201,-5.2831 10.506961,-5.2831 4.66976,0 7.00464,0.70442 8.63906,3.16986 z"
     id="path14-1-1"
     transform="translate(1.5368693,1.152652)" />
  <path
     style="fill:#512e27;fill-opacity:1;stroke-width:0.16109"
     d="m 121.58827,164.84991 c -0.19605,5.02415 -0.19605,6.14062 -7.84206,6.41974 -7.646,0.27912 -7.84206,-1.67471 -8.23416,-4.74502 -0.3921,-3.07032 4.90129,-4.1868 8.82232,-4.1868 3.92103,0 5.88154,0.55824 7.2539,2.51208 z"
     id="path14-1-7-2"
     transform="translate(1.5368693,1.152652)" />
  <path
     style="fill:#6f2515;fill-opacity:1;stroke-width:0.217961"
     d="m 93.833879,175.42473 c -0.2965,6.0817 -0.2965,7.43318 -11.860323,7.77106 -11.56381,0.33786 -11.86032,-2.02724 -12.45334,-5.74383 -0.59302,-3.71659 7.41271,-5.06808 13.34287,-5.06808 5.930164,0 8.895243,0.67574 10.970793,3.04085 z"
     id="path14-9-3"
     transform="translate(1.5368693,1.152652)" />
  <path
     style="fill:#9f4b39;fill-opacity:1;stroke-width:0.152604"
     d="m 60.773326,186.25963 c 0.19965,4.42779 0.19965,5.41176 7.98559,5.65774 7.78595,0.24599 7.98559,-1.47593 8.38486,-4.1818 0.39929,-2.70589 -4.99098,-3.68984 -8.98378,-3.68984 -3.99279,0 -5.98919,0.49198 -7.38667,2.2139 z"
     id="path14-1-2-3"
     transform="translate(1.5368693,1.152652)" />
  <path
     style="fill:#512e27;fill-opacity:1;stroke-width:0.124485"
     d="m 54.164486,178.66232 c 0.16762,3.50897 0.16762,4.28875 6.70521,4.48369 6.53757,0.19493 6.7052,-1.16966 7.04046,-3.31402 0.33526,-2.14438 -4.19075,-2.92414 -7.54336,-2.92414 -3.35261,0 -5.0289,0.38988 -6.20231,1.75447 z"
     id="path14-1-7-7-4"
     transform="translate(1.5368693,1.152652)" />
  <g
     inkscape:label="Layer 1"
     inkscape:groupmode="layer"
     id="layer1"
     transform="translate(1.5368693,1.152652)">
    <path
       sodipodi:type="star"
       style="fill:#ffe300;fill-opacity:1;stroke-width:0.264583"
       id="path1"
       inkscape:flatsided="false"
       sodipodi:sides="5"
       sodipodi:cx="30.737387"
       sodipodi:cy="29.584736"
       sodipodi:r1="10.40229"
       sodipodi:r2="5.2011447"
       sodipodi:arg1="1.6447354"
       sodipodi:arg2="2.2730539"
       inkscape:rounded="0"
       inkscape:randomized="0"
       d="m 29.968952,39.958605 -2.591207,-6.403389 -6.743953,-1.495604 5.289257,-4.443139 -0.661592,-6.876048 5.860147,3.657377 6.335067,-2.754027 -1.667487,6.703523 4.576879,5.173965 -6.890711,0.485628 z"
       inkscape:transform-center-x="0.23745937"
       inkscape:transform-center-y="0.76477897"
       transform="translate(6.915912,3.457956)" />
    <path
       sodipodi:type="star"
       style="fill:#ffe300;fill-opacity:1;stroke-width:0.264583"
       id="path3"
       inkscape:flatsided="false"
       sodipodi:sides="5"
       sodipodi:cx="125.63907"
       sodipodi:cy="36.500648"
       sodipodi:r1="18.982824"
       sodipodi:r2="9.4914122"
       sodipodi:arg1="-2.5142845"
       sodipodi:arg2="-1.8859659"
       inkscape:rounded="0"
       inkscape:randomized="0"
       d="m 110.27038,25.358347 12.42656,2.1184 8.7899,-9.035755 1.8253,12.472989 11.30974,5.567488 -11.29847,5.590331 -1.80009,12.476651 -8.80814,-9.017974 -12.42226,2.143507 5.85474,-11.163746 z"
       inkscape:transform-center-x="-1.807061"
       inkscape:transform-center-y="-0.00592666"
       transform="translate(20.747736,0.38421734)" />
    <path
       sodipodi:type="star"
       style="fill:#ffe300;fill-opacity:1;stroke-width:0.264583"
       id="path4"
       inkscape:flatsided="false"
       sodipodi:sides="5"
       sodipodi:cx="75.690819"
       sodipodi:cy="47.258732"
       sodipodi:r1="13.879768"
       sodipodi:r2="6.9398837"
       sodipodi:arg1="0.84415399"
       sodipodi:arg2="1.4724725"
       inkscape:rounded="0"
       inkscape:randomized="0"
       d="m 84.912035,57.6326 -8.539959,-3.467503 -7.69788,5.069234 0.6588,-9.193501 -7.199905,-5.754639 8.94712,-2.214393 3.248094,-8.625797 4.870825,7.824932 9.207336,0.423603 -5.936784,7.050466 z"
       inkscape:transform-center-x="0.28303342"
       inkscape:transform-center-y="-0.6174825"
       transform="matrix(0.67222455,0,0,0.67222455,38.423917,7.1206044)" />
    <path
       sodipodi:type="star"
       style="fill:#ffe300;fill-opacity:1;stroke-width:0.264583"
       id="path4-5"
       inkscape:flatsided="false"
       sodipodi:sides="5"
       sodipodi:cx="75.690819"
       sodipodi:cy="47.258732"
       sodipodi:r1="13.879768"
       sodipodi:r2="6.9398837"
       sodipodi:arg1="0.84415399"
       sodipodi:arg2="1.4724725"
       inkscape:rounded="0"
       inkscape:randomized="0"
       d="m 84.912035,57.6326 -8.539959,-3.467503 -7.69788,5.069234 0.6588,-9.193501 -7.199905,-5.754639 8.94712,-2.214393 3.248094,-8.625797 4.870825,7.824932 9.207336,0.423603 -5.936784,7.050466 z"
       inkscape:transform-center-x="0.49492964"
       inkscape:transform-center-y="-1.0797629"
       transform="matrix(1.1754859,0,0,1.1754859,-38.274474,12.055096)" />
    <path
       sodipodi:type="star"
       style="fill:#ffe300;fill-opacity:1;stroke-width:0.264583"
       id="path5"
       inkscape:flatsided="false"
       sodipodi:sides="5"
       sodipodi:cx="90.291077"
       sodipodi:cy="104.1229"
       sodipodi:r1="28.341076"
       sodipodi:r2="14.170537"
       sodipodi:arg1="0.27457528"
       sodipodi:arg2="0.90289381"
       inkscape:rounded="0"
       inkscape:randomized="0"
       d="m 117.57051,111.80725 -18.503045,3.44126 -7.654829,17.19327 -8.990587,-16.53404 -18.717242,-1.96716 12.946555,-13.65985 -3.913063,-18.409043 16.991998,8.091778 16.298833,-9.410251 -2.44492,18.660848 z"
       inkscape:transform-center-x="-0.34658101"
       inkscape:transform-center-y="2.3745937"
       transform="translate(17.28978,-9.9896507)" />
    <path
       sodipodi:type="star"
       style="fill:#ffe300;fill-opacity:1;stroke-width:0.264583"
       id="path6"
       inkscape:flatsided="false"
       sodipodi:sides="5"
       sodipodi:cx="140.23933"
       sodipodi:cy="78.380333"
       sodipodi:r1="10.150903"
       sodipodi:r2="5.0754514"
       sodipodi:arg1="1.056345"
       sodipodi:arg2="1.6846635"
       inkscape:rounded="0"
       inkscape:randomized="0"
       d="m 145.23416,87.217332 -5.57151,-3.794416 -6.28432,2.438561 1.88702,-6.471355 -4.26117,-5.223186 6.73774,-0.205102 3.65077,-5.666668 2.27714,6.344595 6.51748,1.720993 -5.3304,4.126277 z"
       inkscape:transform-center-x="-0.35640751"
       inkscape:transform-center-y="-0.62408405"
       transform="translate(26.510996,16.521345)" />
    <path
       sodipodi:type="star"
       style="fill:#ffe300;fill-opacity:1;stroke-width:0.264583"
       id="path7"
       inkscape:flatsided="false"
       sodipodi:sides="5"
       sodipodi:cx="19.595083"
       sodipodi:cy="80.301422"
       sodipodi:r1="8.0777073"
       sodipodi:r2="4.0388532"
       sodipodi:arg1="-1.1284221"
       sodipodi:arg2="-0.50010357"
       inkscape:rounded="0"
       inkscape:randomized="0"
       d="m 23.053039,73.001292 0.08627,5.363434 4.467176,2.969544 -5.074269,1.73944 -1.443771,5.166177 -3.222341,-4.2884 -5.359476,0.223328 3.082753,-4.389817 -1.868567,-5.028152 5.127587,1.575344 z"
       inkscape:transform-center-x="-0.46147461"
       inkscape:transform-center-y="0.31916745"
       transform="translate(21.900388,21.516171)" />
    <ellipse
       style="fill:#3f3449;fill-opacity:1;stroke-width:0.264583"
       id="path10"
       cx="107.77296"
       cy="221.30919"
       rx="57.056274"
       ry="11.52652"
       transform="translate(-1.5368693,-1.152652)" />
    <path
       style="fill:#1f112c;fill-opacity:1;stroke-width:0.264583"
       d="m 46.301661,217.41637 c -4.610608,5.76326 -1.152652,8.45278 4.22639,10.37387 5.379043,1.92108 3.073739,11.91073 -4.610608,26.51099 -7.684346,14.60025 16.905563,35.348 61.859007,36.11643"
       id="path11"
       transform="translate(-1.5368693,-1.152652)" />
    <ellipse
       style="fill:#247332;fill-opacity:1;stroke-width:0.318777"
       id="path13"
       cx="106.81242"
       cy="223.80658"
       rx="54.558861"
       ry="8.6448898"
       transform="translate(-1.5368693,-1.152652)" />
    <path
       sodipodi:type="star"
       style="fill:#ffe300;fill-opacity:1;stroke-width:0.264583"
       id="path7-8"
       inkscape:flatsided="false"
       sodipodi:sides="5"
       sodipodi:cx="19.595083"
       sodipodi:cy="80.301422"
       sodipodi:r1="8.0777073"
       sodipodi:r2="4.0388532"
       sodipodi:arg1="-1.1284221"
       sodipodi:arg2="-0.50010357"
       inkscape:rounded="0"
       inkscape:randomized="0"
       d="m 23.053039,73.001292 0.08627,5.363434 4.467176,2.969544 -5.074269,1.73944 -1.443771,5.166177 -3.222341,-4.2884 -5.359476,0.223328 3.082753,-4.389817 -1.868567,-5.028152 5.127587,1.575344 z"
       inkscape:transform-center-x="-0.33348555"
       inkscape:transform-center-y="0.23064734"
       transform="matrix(0.7226522,0,0,0.7226522,127.13468,19.246835)" />
    <path
       style="fill:#9b9dd7;fill-opacity:0.640244;stroke-width:0.264583"
       d="m 49.179818,42.263905 c 9.98965,-13.447607 43.416558,-24.205692 88.369982,-11.910737 44.95343,12.294954 21.51617,34.579559 -2.3053,36.500646 -23.82147,1.921087 -39.574385,4.226391 -51.86934,7.684347 -12.294954,3.457956 -24.589909,16.905564 39.19017,20.363516 63.78008,3.45796 10.75808,28.432093 -21.51617,28.047873 -32.274258,-0.38422 -15.368696,13.44761 14.21604,19.21087 29.58473,5.76326 13.44761,18.82664 -5.76326,19.59508 -19.210868,0.76843 -18.442433,12.67917 -1.92109,14.21604 16.52135,1.53687 13.44761,16.52135 4.99483,18.44243 -8.45278,1.92109 -9.60544,13.83183 -8.837,15.75291 0.76843,1.92109 5.37904,11.52652 11.52652,15.3687 6.14748,3.84217 -1.15265,0 -1.15265,0 0,0 -19.979305,-8.45279 -13.06339,-23.43726 6.91591,-14.98448 9.98965,-9.22122 10.37387,-14.98448 0.38421,-5.76326 -23.053045,-5.37904 -23.821479,-18.44243 -0.768435,-13.06339 23.821479,-8.45278 24.974129,-14.98447 1.15265,-6.5317 -51.485125,-13.06339 -51.485125,-23.82148 0,-10.75808 44.569215,-15.36869 46.106085,-19.9793 C 108.7335,105.27555 54.55886,107.19664 56.864164,83.375159 59.169468,59.553685 118.72316,58.401033 119.49159,51.869338 120.26002,45.337644 99.547133,28.768025 49.179818,42.263905 Z"
       id="path9" />
    <text x="20" y="35" font-family="Noto Serif Khmer" font-style="italic" font-size="1.5em">សុខសប្បាយទេ</text>
  </g>
</svg>
